<svg id="Layer_1" data-name="Layer 1" xmlns="http://www.w3.org/2000/svg" viewBox="0 0 2470.18 2470.54"><path d="M0,1234.18C-.84,566.21,537.88,2.94,1231.19,0c675-2.85,1238.3,541.48,1239,1235.75.66,677.15-548.28,1233.9-1235.06,1234.78C558.2,2471.4-.95,1921.56,0,1234.18Zm256.82,493.05c156.09,316.17,497.48,585.23,934.94,602.27,446.59,17.4,841.37-233,1028-614.67,184.43-377.19,119.6-793.55-61-1066.56-2.33,2.46-4.66,4.76-6.81,7.21-19.55,22.31-39,44.69-58.61,67-95.58,108.65-187.37,220.37-273.19,337-90.79,123.35-174,251.54-246.57,386.48-1.85,3.44-3.62,6.94-5.92,11.36,9.72,2.66,18.29,5.28,27,7.34,49.33,11.66,98.85,15,148.25,1.11,16.92-4.75,33.34-11.37,49.76-17.71,9.65-3.72,15.2-2.57,19.18,5.66,8.26,17.07.17,46.21-15.84,56.46-76.58,49.07-159.49,66.86-249.31,50.19-10.05-1.87-20.05-4-30.28-6.09-1.31,2.57-2.44,4.59-3.4,6.68a1533.19,1533.19,0,0,0-64.16,162.54c-24.91,75.61-42,152.77-47,232.41-.43,7-.52,14.15-2.45,20.74-7.42,25.31-35.78,39.16-60.85,30.45-13.27-4.62-21.15-13.3-22.33-27.64-1.68-20.59-4.1-41.13-5.18-61.75a1389.23,1389.23,0,0,1,5.35-211.67A1078.63,1078.63,0,0,1,1344,1548.68c4.56-18,9.57-35.93,14.53-54.44-3-1.69-5.88-3.3-8.75-4.86-45.89-25.07-91.91-49.92-137.66-75.25-41.39-22.91-82.4-46.47-123.75-69.46-14.52-8.07-29.52-15.28-44.6-23-3.37,2.74-6.44,5.26-9.53,7.74-48.3,38.86-96.14,78.29-145,116.42-75,58.48-152.78,112.8-236.33,158.57-67.67,37.07-137.69,68.58-211.75,90.69-58,17.31-116.9,29.34-177.59,31.31C261.63,1726.43,259.74,1726.85,256.82,1727.23ZM1937.16,395.38c-3.3-2.86-5.72-5.08-8.26-7.15a1095.5,1095.5,0,0,0-190.8-125.74c-150.54-77.81-310.68-118.15-479.94-122.12a1087.12,1087.12,0,0,0-216.87,17C935.92,176.16,835.4,209.45,740.16,258.1,576.8,341.55,441.91,458,336.86,608.68Q236.3,752.89,185.59,921.27c-28.08,94.06-43.62,190.13-45.35,288.32-.71,40.33.22,80.62,3.85,120.85,3.49,38.86,8.76,77.42,16.08,115.74,1,5,3.06,7.65,7.77,8.86,19,4.91,37.75,11.2,57,14.63,56.4,10.06,112.79,7.75,168.92-3,65.87-12.6,128.5-34.89,188.59-64.26,89.43-43.71,173.06-97.18,254.85-153.62,1.38-1,2.32-2.54,3.86-4.26a447.74,447.74,0,0,0-78.83-12.33c-37.41-2.38-74.67-.29-111.27,8.1-8.88,2-14.35-.48-18.67-7.1-7.46-11.42-15.17-22.76-21.46-34.83a701.8,701.8,0,0,1-55.48-142.12,482,482,0,0,1-10.1-48.85c-1.92-12,1.3-15.36,13-17.76a782.87,782.87,0,0,1,102.81-14.59c47.1-3.33,94-2.06,140.28,7.81,83.41,17.8,161.76,48.89,235.14,92.42,5.12,3,10.26,6,15.83,9.31,3.69-2.89,7.13-5.45,10.42-8.18q153.09-127.08,306.11-254.27c94.66-79,189.75-157.55,288.16-231.93,89.08-67.35,180-132,274.88-191.12C1933.33,398.24,1934.61,397.2,1937.16,395.38Zm-527.91,974.55c2.21-4.12,3.93-7.34,5.66-10.54,32.67-60.35,64.69-121.06,98.17-181,42-75.09,87.87-147.77,139.14-216.94,66.34-89.5,137.66-175,210.44-259.22q75.48-87.4,150.67-175.07c2.33-2.71,4.46-5.59,6.69-8.4a13.1,13.1,0,0,0-7.4,2.28A2868.66,2868.66,0,0,0,1729.51,716c-95.26,74.19-186.87,152.65-275.78,234.28q-128.91,118.33-257.27,237.27c-1.15,1-2.11,2.31-3.85,4.26C1266.09,1249.53,1332.32,1315.16,1409.25,1369.93Z"/></svg>