<?xml version="1.0" encoding="UTF-8"?>
<svg id="Layer_2" data-name="Layer 2" xmlns="http://www.w3.org/2000/svg" viewBox="0 0 3983.58 832.79">
  <defs>
    <style>
      .cls-1 {
        letter-spacing: -.02em;
      }

      .cls-1, .cls-2, .cls-3, .cls-4 {
        fill: #fff;
      }

      .cls-1, .cls-5, .cls-3, .cls-4 {
        isolation: isolate;
      }

      .cls-1, .cls-3, .cls-4 {
        font-family: LequireDEMO, 'Lequire DEMO';
        font-size: 650px;
      }

      .cls-4 {
        letter-spacing: -.04em;
      }
    </style>
  </defs>
  <g class="cls-5">
    <text class="cls-1" transform="translate(844.74 639)"><tspan x="0" y="0">A</tspan></text>
    <text class="cls-4" transform="translate(1314.04 639)"><tspan x="0" y="0">S</tspan></text>
    <text class="cls-3" transform="translate(1702.09 639)"><tspan x="0" y="0">V</tspan></text>
    <text class="cls-4" transform="translate(2185.04 639)"><tspan x="0" y="0">E</tspan></text>
    <text class="cls-3" transform="translate(2537.99 639)"><tspan x="0" y="0">ORA</tspan></text>
  </g>
  <path class="cls-2" d="M0,416.04C-.28,190.87,181.32.99,415.02,0c227.54-.96,417.42,182.53,417.66,416.56.22,228.26-184.82,415.94-416.33,416.23C188.17,833.09-.32,647.75,0,416.04ZM86.57,582.24c52.62,106.58,167.7,197.28,315.16,203.02,150.54,5.87,283.62-78.54,346.53-207.2,62.17-127.15,40.32-267.5-20.56-359.53-.79.83-1.57,1.6-2.3,2.43-6.59,7.52-13.15,15.06-19.76,22.59-32.22,36.63-63.16,74.28-92.09,113.6-30.6,41.58-58.65,84.79-83.12,130.28-.62,1.16-1.22,2.34-2,3.83,3.28.9,6.17,1.78,9.1,2.47,16.63,3.93,33.32,5.06,49.97.37,5.7-1.6,11.24-3.83,16.77-5.97,3.25-1.25,5.12-.87,6.47,1.91,2.78,5.75.06,15.58-5.34,19.03-25.81,16.54-53.76,22.54-84.04,16.92-3.39-.63-6.76-1.35-10.21-2.05-.44.87-.82,1.55-1.15,2.25-8.25,17.84-15.47,36.13-21.63,54.79-8.4,25.49-14.16,51.5-15.84,78.34-.14,2.36-.18,4.77-.83,6.99-2.5,8.53-12.06,13.2-20.51,10.26-4.47-1.56-7.13-4.48-7.53-9.32-.57-6.94-1.38-13.86-1.75-20.82-1.21-23.8-.61-47.65,1.8-71.35,1.79-17.89,4.9-35.62,9.3-53.04,1.54-6.07,3.23-12.11,4.9-18.35-1.01-.57-1.98-1.11-2.95-1.64-15.47-8.45-30.98-16.83-46.4-25.37-13.95-7.72-27.78-15.66-41.72-23.41-4.89-2.72-9.95-5.15-15.03-7.75-1.14.92-2.17,1.77-3.21,2.61-16.28,13.1-32.41,26.39-48.88,39.24-25.28,19.71-51.5,38.02-79.66,53.45-22.81,12.5-46.41,23.12-71.38,30.57-19.55,5.84-39.41,9.89-59.86,10.55-.65.01-1.29.15-2.28.28l.03.02ZM653,133.28c-1.11-.96-1.93-1.71-2.78-2.41-19.9-16.33-41.46-30.54-64.32-42.39-50.75-26.23-104.73-39.83-161.78-41.17-24.5-.54-48.99,1.38-73.11,5.73-35.52,6.33-69.4,17.56-101.51,33.96-55.07,28.13-100.54,67.38-135.95,118.18-22.6,32.41-39.6,67.53-50.99,105.37-9.47,31.71-14.7,64.09-15.29,97.19-.24,13.59.07,27.18,1.3,40.74,1.18,13.1,2.95,26.1,5.42,39.02.34,1.69,1.03,2.58,2.62,2.99,6.4,1.66,12.73,3.78,19.21,4.93,19.01,3.39,38.02,2.61,56.94-1.01,22.2-4.25,43.32-11.76,63.57-21.66,30.15-14.73,58.34-32.76,85.91-51.78.47-.34.78-.86,1.3-1.44-8.72-2.17-17.61-3.56-26.57-4.16-12.61-.8-25.17-.1-37.51,2.73-2.99.67-4.84-.16-6.29-2.39-2.51-3.85-5.11-7.67-7.23-11.74-7.96-15.24-14.23-31.31-18.7-47.91-1.42-5.43-2.55-10.92-3.4-16.47-.65-4.05.44-5.18,4.38-5.99,11.43-2.4,23.01-4.05,34.66-4.92,15.88-1.12,31.69-.69,47.29,2.63,28.12,6,54.53,16.48,79.26,31.15,1.73,1.01,3.46,2.02,5.34,3.14,1.24-.97,2.4-1.84,3.51-2.76,34.4-28.56,68.8-57.13,103.19-85.71,31.91-26.63,63.96-53.11,97.14-78.18,30.03-22.7,60.68-44.5,92.66-64.43.46-.29.89-.64,1.75-1.25h-.02ZM475.05,461.8c.74-1.39,1.32-2.47,1.91-3.55,11.01-20.34,21.81-40.81,33.09-61.01,14.16-25.31,29.62-49.81,46.9-73.13,22.36-30.17,46.4-58.99,70.94-87.38,16.96-19.64,33.89-39.31,50.79-59.01.79-.91,1.5-1.88,2.26-2.83-.89,0-1.76.27-2.49.77-33.1,19.98-64.97,41.93-95.43,65.72-32.11,25.01-62.99,51.46-92.96,78.97-28.97,26.59-57.88,53.25-86.72,79.98-.39.34-.71.78-1.3,1.44,24.77,19.46,47.1,41.58,73.03,60.04h-.02Z"/>
</svg>